<?xml version="1.0" encoding="UTF-8"?>
<svg xmlns="http://www.w3.org/2000/svg" xmlns:xlink="http://www.w3.org/1999/xlink" width="90px" height="122px" viewBox="0 0 90 121" version="1.1">
<g id="surface1">
<path style=" stroke:none;fill-rule:nonzero;fill:rgb(32.549021%,50.980395%,63.137257%);fill-opacity:1;" d="M 29.023438 93.539062 C 29.023438 93.539062 24.382812 96.222656 32.324219 97.128906 C 41.945312 98.222656 46.863281 98.066406 57.46875 96.070312 C 57.46875 96.070312 60.253906 97.808594 64.148438 99.3125 C 40.378906 109.449219 10.351562 98.726562 29.023438 93.539062 "/>
<path style=" stroke:none;fill-rule:nonzero;fill:rgb(32.549021%,50.980395%,63.137257%);fill-opacity:1;" d="M 26.117188 80.3125 C 26.117188 80.3125 20.914062 84.144531 28.863281 84.964844 C 39.140625 86.019531 47.257812 86.105469 61.304688 83.414062 C 61.304688 83.414062 63.246094 85.375 66.300781 86.445312 C 37.5625 94.804688 5.550781 87.105469 26.117188 80.3125 "/>
<path style=" stroke:none;fill-rule:nonzero;fill:rgb(90.588236%,43.529412%,0%);fill-opacity:1;" d="M 50.605469 57.882812 C 56.460938 64.589844 49.066406 70.625 49.066406 70.625 C 49.066406 70.625 63.9375 62.988281 57.109375 53.425781 C 50.730469 44.507812 45.835938 40.078125 72.320312 24.800781 C 72.320312 24.800781 30.75 35.125 50.605469 57.882812 "/>
<path style=" stroke:none;fill-rule:nonzero;fill:rgb(32.549021%,50.980395%,63.137257%);fill-opacity:1;" d="M 82.042969 103.320312 C 82.042969 103.320312 85.476562 106.132812 78.261719 108.3125 C 64.539062 112.445312 21.15625 113.695312 9.101562 108.476562 C 4.769531 106.601562 12.894531 104 15.449219 103.453125 C 18.117188 102.878906 19.640625 102.984375 19.640625 102.984375 C 14.820312 99.609375 -11.503906 109.613281 6.269531 112.480469 C 54.730469 120.296875 94.613281 108.960938 82.042969 103.320312 "/>
<path style=" stroke:none;fill-rule:nonzero;fill:rgb(32.549021%,50.980395%,63.137257%);fill-opacity:1;" d="M 31.253906 66.613281 C 31.253906 66.613281 9.1875 71.828125 23.4375 73.71875 C 29.457031 74.523438 41.453125 74.339844 52.628906 73.410156 C 61.761719 72.644531 70.933594 71.011719 70.933594 71.011719 C 70.933594 71.011719 67.710938 72.386719 65.382812 73.96875 C 42.972656 79.832031 -0.320312 77.101562 12.144531 71.105469 C 22.683594 66.039062 31.253906 66.613281 31.253906 66.613281 "/>
<path style=" stroke:none;fill-rule:nonzero;fill:rgb(32.549021%,50.980395%,63.137257%);fill-opacity:1;" d="M 70.84375 88.625 C 93.621094 76.847656 83.089844 65.53125 75.738281 67.058594 C 73.9375 67.429688 73.132812 67.753906 73.132812 67.753906 C 73.132812 67.753906 73.800781 66.710938 75.078125 66.261719 C 89.625 61.175781 100.808594 81.261719 70.382812 89.21875 C 70.382812 89.21875 70.738281 88.90625 70.84375 88.625 "/>
<path style=" stroke:none;fill-rule:nonzero;fill:rgb(90.588236%,43.529412%,0%);fill-opacity:1;" d="M 57.109375 0.128906 C 57.109375 0.128906 69.722656 12.683594 45.140625 31.988281 C 25.429688 47.472656 40.644531 56.304688 45.132812 66.390625 C 33.625 56.066406 25.183594 46.972656 30.847656 38.511719 C 39.164062 26.09375 62.199219 20.070312 57.109375 0.128906 "/>
<path style=" stroke:none;fill-rule:nonzero;fill:rgb(32.549021%,50.980395%,63.137257%);fill-opacity:1;" d="M 33.492188 120.535156 C 55.359375 121.925781 88.9375 119.761719 89.734375 109.46875 C 89.734375 109.46875 88.203125 113.371094 71.660156 116.46875 C 53 119.960938 29.980469 119.554688 16.328125 117.316406 C 16.328125 117.316406 19.121094 119.617188 33.492188 120.535156 "/>
</g>
</svg>
